<svg width="48" height="48" viewBox="0 0 48 48" fill="none" xmlns="http://www.w3.org/2000/svg">
  <path d="M32 20C34.2091 20 36 18.2091 36 16C36 13.7909 34.2091 12 32 12C29.7909 12 28 13.7909 28 16C28 18.2091 29.7909 20 32 20Z" stroke="#66e8fd" stroke-width="2" stroke-linecap="round" stroke-linejoin="round"/>
  <path d="M16 20C18.2091 20 20 18.2091 20 16C20 13.7909 18.2091 12 16 12C13.7909 12 12 13.7909 12 16C12 18.2091 13.7909 20 16 20Z" stroke="#66e8fd" stroke-width="2" stroke-linecap="round" stroke-linejoin="round"/>
  <path d="M42 32V28C42 24.6863 39.3137 22 36 22H32M6 32V28C6 24.6863 8.68629 22 12 22H16M36 32V28M12 32V28" stroke="#66e8fd" stroke-width="2" stroke-linecap="round" stroke-linejoin="round"/>
  <path d="M24 36C27.3137 36 30 33.3137 30 30V26C30 22.6863 27.3137 20 24 20C20.6863 20 18 22.6863 18 26V30C18 33.3137 20.6863 36 24 36Z" stroke="#66e8fd" stroke-width="2" stroke-linecap="round" stroke-linejoin="round"/>
</svg> 